# This file uses centimeters as units for non-parametric coordinates.

mtllib IIIS.mtl
g default
v -1.950000 -6.687244 0.500000
v -0.950000 -5.718161 0.500000
v -1.950000 6.201811 0.500000
v -0.950000 7.177620 0.500000
v -1.950000 6.201811 -0.500000
v -0.950000 7.177620 -0.500000
v -1.950000 -6.687244 -0.500000
v -0.950000 -5.718161 -0.500000
vt 0.375000 0.000000
vt 0.625000 0.000000
vt 0.375000 0.250000
vt 0.625000 0.250000
vt 0.375000 0.500000
vt 0.625000 0.500000
vt 0.375000 0.750000
vt 0.625000 0.750000
vt 0.375000 1.000000
vt 0.625000 1.000000
vt 0.875000 0.000000
vt 0.875000 0.250000
vt 0.125000 0.000000
vt 0.125000 0.250000
vn 0.000000 0.000000 1.000000
vn 0.000000 0.000000 1.000000
vn 0.000000 0.000000 1.000000
vn 0.000000 0.000000 1.000000
vn -0.698397 0.715710 0.000000
vn -0.698397 0.715710 0.000000
vn -0.698397 0.715710 0.000000
vn -0.698397 0.715710 0.000000
vn 0.000000 0.000000 -1.000000
vn 0.000000 0.000000 -1.000000
vn 0.000000 0.000000 -1.000000
vn 0.000000 0.000000 -1.000000
vn 0.695919 -0.718120 0.000000
vn 0.695919 -0.718120 0.000000
vn 0.695919 -0.718120 0.000000
vn 0.695919 -0.718120 0.000000
vn 1.000000 0.000000 0.000000
vn 1.000000 0.000000 0.000000
vn 1.000000 0.000000 0.000000
vn 1.000000 0.000000 0.000000
vn -1.000000 0.000000 0.000000
vn -1.000000 0.000000 0.000000
vn -1.000000 0.000000 0.000000
vn -1.000000 0.000000 0.000000
s off
g pasted__pasted__pCube1
usemtl initialShadingGroup
f 1/1/1 2/2/2 4/4/3 3/3/4
f 3/3/5 4/4/6 6/6/7 5/5/8
f 5/5/9 6/6/10 8/8/11 7/7/12
f 7/7/13 8/8/14 2/10/15 1/9/16
f 2/2/17 8/11/18 6/12/19 4/4/20
f 7/13/21 1/1/22 3/3/23 5/14/24
